<?xml version="1.0" encoding="utf-8"?>
<svg version="1.1" xmlns="http://www.w3.org/2000/svg" xmlns:xlink="http://www.w3.org/1999/xlink" height="34.28353004676117" width="28.006485778688045">
  <defs>
    <path id="path-1" opacity="1" fill-rule="evenodd" d="M8.942466000351828,0 L18.842459896836203,0 L18.842459896836203,3.299999237060547 L15.542472103867453,3.299999237060547 L15.542472103867453,6.698997497558594 C17.951468685898703,6.995998382568359 20.162467221054953,7.952999114990234 21.977469662461203,9.371997833251953 L24.386466244492453,6.9629974365234375 L26.729483822617453,9.305999755859375 L24.32045672300808,11.698501586914062 L24.32045672300808,11.71500015258789 C27.98622820738308,16.44910430908203 28.00649187925808,23.057594299316406 24.36977312925808,27.814071655273438 C20.733084896836203,32.57054901123047 14.350424984726828,34.283531188964844 8.820883969101828,31.987098693847656 C3.2913124358987034,29.690673828125 -0.000008364882546629815,23.9600830078125 0.8028175628518284,18.026691436767578 C1.6056129730080784,12.093307495117188 6.301474789414328,7.443412780761719 12.242484310898703,6.698997497558594 L12.242484310898703,3.299999237060547 L8.942466000351828,3.299999237060547 L8.942466000351828,0 L23.792472103867453,19.800003051757812 C23.792472103867453,25.267623901367188 19.360099056992453,29.699996948242188 13.892478207383078,29.699996948242188 C8.424857357773703,29.699996948242188 3.9924843108987034,25.267623901367188 3.9924843108987034,19.800003051757812 C3.9924843108987034,14.332382202148438 8.424857357773703,9.900001525878906 13.892478207383078,9.900001525878906 C19.360099056992453,9.900001525878906 23.792472103867453,14.332382202148438 23.792472103867453,19.800003051757812 L19.73348162535183,16.301998138427734 L17.39046404722683,13.958999633789062 L11.565970639023703,19.799999237060547 L13.892478207383078,22.110000610351562 L19.73348162535183,16.301998138427734 L8.942466000351828,0Z"/>
  </defs>
  <g opacity="1">
    <g opacity="1">
      <use xlink:href="#path-1" fill="rgb(255,255,255)" fill-opacity="1"/>
    </g>
  </g>
</svg>